<svg width="19" height="20" viewBox="0 0 19 20" fill="none" xmlns="http://www.w3.org/2000/svg">
<path d="M12.1715 4.99992L5.58553 11.5859C5.39451 11.7704 5.24215 11.9911 5.13733 12.2351C5.03251 12.4791 4.97734 12.7416 4.97503 13.0071C4.97272 13.2727 5.02333 13.536 5.12389 13.7818C5.22445 14.0276 5.37296 14.2509 5.56074 14.4387C5.74853 14.6265 5.97183 14.775 6.21762 14.8756C6.46342 14.9761 6.72678 15.0267 6.99233 15.0244C7.25789 15.0221 7.52033 14.9669 7.76434 14.8621C8.00835 14.7573 8.22904 14.6049 8.41353 14.4139L14.8275 7.82792C15.5562 7.07351 15.9593 6.0631 15.9502 5.01431C15.9411 3.96553 15.5204 2.96228 14.7788 2.22065C14.0372 1.47901 13.0339 1.05834 11.9851 1.04922C10.9363 1.04011 9.92594 1.44329 9.17153 2.17192L2.75653 8.75692C1.63122 9.88223 0.999023 11.4085 0.999023 12.9999C0.999023 14.5914 1.63122 16.1176 2.75653 17.2429C3.88184 18.3682 5.4081 19.0004 6.99953 19.0004C8.59097 19.0004 10.1172 18.3682 11.2425 17.2429L17.4995 10.9999" stroke="black" stroke-width="2" stroke-linecap="round" stroke-linejoin="round"/>
</svg>
